<svg width="64" height="64" viewBox="0 0 64 64" fill="none" xmlns="http://www.w3.org/2000/svg">
<g clip-path="url(#clip0_105_16811)">
<rect width="64" height="64" fill="#76B5FF"/>
<circle cx="32.5" cy="32.5" r="32.5" fill="#76B5FF"/>
<path d="M48.7924 30.5213L45.0024 32.4086L40.0923 23.018L43.9283 21.1C44.2134 20.9547 44.5444 20.928 44.8491 21.0257C45.1537 21.1234 45.4074 21.3377 45.5548 21.6217L49.3294 28.8488C49.406 28.9934 49.4528 29.152 49.4672 29.315C49.4816 29.478 49.4632 29.6423 49.4132 29.7981C49.3631 29.954 49.2824 30.0982 49.1758 30.2224C49.0692 30.3466 48.9389 30.4482 48.7924 30.5213V30.5213Z" stroke="white" stroke-width="1.5" stroke-linecap="round" stroke-linejoin="round"/>
<path d="M17.9968 32.2555L14.2068 30.3528C14.0609 30.2813 13.9308 30.1812 13.8244 30.0584C13.7179 29.9356 13.6372 29.7927 13.5871 29.6381C13.537 29.4835 13.5185 29.3204 13.5327 29.1585C13.5469 28.9966 13.5935 28.8392 13.6697 28.6957L17.4444 21.4686C17.5921 21.1848 17.8447 20.9698 18.1485 20.8695C18.4523 20.7692 18.7832 20.7915 19.0709 20.9316L22.9069 22.8496L17.9968 32.2555Z" stroke="white" stroke-width="1.5" stroke-linecap="round" stroke-linejoin="round"/>
<path d="M45.0025 32.4093L42.5474 35.294L36.9008 40.9406C36.7469 41.0845 36.5604 41.189 36.3573 41.2451C36.1542 41.3013 35.9406 41.3073 35.7346 41.2629L26.835 39.038C26.6725 38.9926 26.521 38.9143 26.3901 38.8078L17.9968 32.2559" stroke="white" stroke-width="1.5" stroke-linecap="round" stroke-linejoin="round"/>
<path d="M42.5475 35.2929L35.796 30.3828L33.832 31.8558C32.9811 32.4909 31.9477 32.834 30.8859 32.834C29.8241 32.834 28.7908 32.4909 27.9399 31.8558L27.1113 31.2267C26.9712 31.1202 26.8553 30.9851 26.7713 30.8304C26.6873 30.6758 26.6371 30.505 26.624 30.3295C26.611 30.154 26.6353 29.9777 26.6955 29.8123C26.7557 29.6469 26.8504 29.4961 26.9732 29.3701L32.9881 23.3705C33.1011 23.2581 33.2351 23.169 33.3826 23.1085C33.53 23.0479 33.6879 23.017 33.8473 23.0176H40.0924" stroke="white" stroke-width="1.5" stroke-linecap="round" stroke-linejoin="round"/>
<path d="M22.9988 22.8492L30.8703 20.5476C31.15 20.4674 31.4491 20.4891 31.7142 20.6089L37.0233 23.018" stroke="white" stroke-width="1.5" stroke-linecap="round" stroke-linejoin="round"/>
<path d="M29.0446 44.4999L24.426 43.3337C24.2378 43.2912 24.0636 43.2014 23.9197 43.0729L20.4519 40.0654" stroke="white" stroke-width="1.5" stroke-linecap="round" stroke-linejoin="round"/>
</g>
<defs>
<clipPath id="clip0_105_16811">
<rect width="64" height="64" fill="white"/>
</clipPath>
</defs>
</svg>
