<svg width="64" height="64" viewBox="0 0 64 64" fill="none" xmlns="http://www.w3.org/2000/svg">
<g clip-path="url(#clip0_105_16814)">
<rect width="64" height="64" fill="#76B5FF"/>
<circle cx="32.5" cy="32.5" r="32.5" fill="#76B5FF"/>
<path d="M26.8588 39.7498H16.8901C16.6498 39.7498 16.4193 39.6543 16.2493 39.4844C16.0794 39.3144 15.9839 39.0839 15.9839 38.8436V28.8749C15.9839 25.9907 17.1296 23.2246 19.1691 21.1852C21.2085 19.1457 23.9746 18 26.8588 18V18C29.743 18 32.5091 19.1457 34.5485 21.1852C36.588 23.2246 37.7337 25.9907 37.7337 28.8749V28.8749C37.7337 31.7591 36.588 34.5252 34.5485 36.5646C32.5091 38.6041 29.743 39.7498 26.8588 39.7498V39.7498Z" stroke="white" stroke-width="1.5" stroke-linecap="round" stroke-linejoin="round"/>
<path d="M26.2695 39.7504C27.0193 41.8711 28.4082 43.7071 30.245 45.0055C32.0817 46.304 34.2758 47.0009 36.5252 47.0003H46.4938C46.7342 47.0003 46.9647 46.9049 47.1347 46.7349C47.3046 46.565 47.4001 46.3345 47.4001 46.0941V36.1254C47.404 33.342 46.3389 30.6633 44.4249 28.6424C42.5108 26.6215 39.8938 25.4127 37.1142 25.2656" stroke="white" stroke-width="1.5" stroke-linecap="round" stroke-linejoin="round"/>
</g>
<defs>
<clipPath id="clip0_105_16814">
<rect width="64" height="64" fill="white"/>
</clipPath>
</defs>
</svg>
