<svg width="60" height="60" viewBox="0 0 60 60" fill="none" xmlns="http://www.w3.org/2000/svg">
<rect width="60" height="60" fill="#FFC531"/>
<path d="M24.6372 30.0867C25.7596 32.4046 27.6339 34.2741 29.9547 35.3906C30.1259 35.4717 30.3153 35.5067 30.5041 35.4924C30.693 35.478 30.8749 35.4148 31.0319 35.3088L34.4405 33.0318C34.5911 32.9297 34.7652 32.8673 34.9464 32.8506C35.1276 32.8339 35.31 32.8634 35.4768 32.9364L41.8578 35.6769C42.0759 35.7677 42.2581 35.9276 42.3763 36.1321C42.4946 36.3366 42.5424 36.5743 42.5123 36.8086C42.31 38.3871 41.5395 39.8379 40.345 40.8894C39.1504 41.9409 37.6136 42.5212 36.0222 42.5215C31.1042 42.5215 26.3877 40.5679 22.9102 37.0904C19.4327 33.6128 17.479 28.8963 17.479 23.9784C17.4794 22.3869 18.0596 20.8501 19.1111 19.6556C20.1626 18.461 21.6134 17.6905 23.1919 17.4883C23.4262 17.4582 23.6639 17.5059 23.8684 17.6242C24.0729 17.7425 24.2328 17.9247 24.3236 18.1427L27.0642 24.5374C27.1354 24.7015 27.1653 24.8806 27.151 25.0589C27.1367 25.2372 27.0788 25.4093 26.9824 25.56L24.7054 29.0232C24.604 29.1798 24.5445 29.3599 24.5326 29.5461C24.5206 29.7323 24.5567 29.9184 24.6372 30.0867V30.0867Z" stroke="white" stroke-width="1.5" stroke-linecap="round" stroke-linejoin="round"/>
</svg>
