<svg width="64" height="64" viewBox="0 0 64 64" fill="none" xmlns="http://www.w3.org/2000/svg">
<g clip-path="url(#clip0_105_16815)">
<rect width="64" height="64" fill="#FFC531"/>
<circle cx="32.5" cy="32.5" r="32.5" fill="#FFC531"/>
<path d="M32.5001 38.5129C35.6626 38.5129 38.2263 35.9492 38.2263 32.7867C38.2263 29.6242 35.6626 27.0605 32.5001 27.0605C29.3376 27.0605 26.7739 29.6242 26.7739 32.7867C26.7739 35.9492 29.3376 38.5129 32.5001 38.5129Z" stroke="white" stroke-width="1.5" stroke-linecap="round" stroke-linejoin="round"/>
<path d="M24.2544 43.6655C25.0086 42.121 26.1814 40.8194 27.6392 39.9089C29.097 38.9984 30.7813 38.5156 32.5001 38.5156C34.2189 38.5156 35.9031 38.9984 37.361 39.9089C38.8188 40.8194 39.9916 42.121 40.7458 43.6655" stroke="white" stroke-width="1.5" stroke-linecap="round" stroke-linejoin="round"/>
<path d="M18.1846 33.9318C18.9831 32.8634 20.0202 31.9964 21.2132 31.3999C22.4062 30.8034 23.7221 30.4939 25.056 30.4961" stroke="white" stroke-width="1.5" stroke-linecap="round" stroke-linejoin="round"/>
<path d="M25.0558 30.4959C24.1863 30.4967 23.3346 30.2502 22.6001 29.785C21.8655 29.3197 21.2786 28.6551 20.9077 27.8687C20.5369 27.0823 20.3976 26.2065 20.506 25.3439C20.6143 24.4812 20.966 23.6672 21.5198 22.9969C22.0737 22.3267 22.8068 21.8279 23.6336 21.5588C24.4604 21.2898 25.3466 21.2616 26.1889 21.4775C27.0311 21.6934 27.7945 22.1446 28.3898 22.7783C28.9851 23.4119 29.3878 24.202 29.5508 25.056" stroke="white" stroke-width="1.5" stroke-linecap="round" stroke-linejoin="round"/>
<path d="M39.9438 30.4961C41.2777 30.4939 42.5936 30.8034 43.7866 31.3999C44.9796 31.9964 46.0167 32.8634 46.8153 33.9318" stroke="white" stroke-width="1.5" stroke-linecap="round" stroke-linejoin="round"/>
<path d="M35.4487 25.056C35.6118 24.202 36.0145 23.4119 36.6098 22.7783C37.2051 22.1446 37.9685 21.6934 38.8107 21.4775C39.6529 21.2616 40.5392 21.2898 41.366 21.5588C42.1928 21.8279 42.9259 22.3267 43.4798 22.9969C44.0336 23.6672 44.3852 24.4812 44.4936 25.3439C44.602 26.2065 44.4627 27.0823 44.0918 27.8687C43.721 28.6551 43.134 29.3197 42.3995 29.785C41.665 30.2502 40.8132 30.4967 39.9438 30.4959" stroke="white" stroke-width="1.5" stroke-linecap="round" stroke-linejoin="round"/>
</g>
<defs>
<clipPath id="clip0_105_16815">
<rect width="64" height="64" fill="white"/>
</clipPath>
</defs>
</svg>
