<svg width="299" height="112" viewBox="0 0 299 112" fill="none" xmlns="http://www.w3.org/2000/svg">
<path d="M190.044 14.8017C224.121 18.8332 261.668 29.7149 283.398 46.4364C304.091 62.3152 303.51 83.3131 276.215 96.7773C249.79 109.788 210.263 111.193 178.308 111.099C144.692 110.985 110.518 108.432 78.8064 101.964C51.1964 96.3434 19.4992 87.4024 5.93151 70.6577C-3.41785 59.0552 1.35352 46.0391 13.3032 35.5794C44.2293 8.53012 108.343 -2.47738 158.819 1.95109C193.312 4.96582 223.236 16.4399 244.005 33.1287C245.974 34.7126 241.63 36.3784 239.777 34.8174C199.144 2.20779 127.246 -3.22889 67.0874 13.5138C44.0613 19.9339 21.2117 30.3579 10.4821 44.7732C-0.383067 59.3759 10.3373 73.3574 28.8525 82.8456C55.9376 96.7184 93.5898 102.767 128.21 105.734C164.34 108.857 203.073 109.773 238.974 104.063C255.125 101.498 270.982 97.002 282.15 89.1423C295.543 79.6706 296.367 66.7888 287.728 56.0999C270.957 35.2398 226.22 22.5794 190.49 18.0203L188.82 17.8164C185.626 17.448 186.85 14.4245 190.044 14.8017Z" fill="#FFC531" stroke="#FFC531" stroke-width="1.69547"/>
</svg>
